#Comment line ignore any data following # character 
#Hierarchical Translation and Rotation (.htr) file 
[Header]	
#Header keywords are followed by a single value 
FileType HTR		#Single word string
DataType HTRS		#Translation followed by rotation and scale data
FileVersion 1		#integer
NumSegments 84		#integer
NumFrames 2		#integer
DataFrameRate 30		#integer, data frame rate in this file
EulerRotationOrder ZYX
CalibrationUnits mm
RotationUnits Degrees
GlobalAxisofGravity Y
BoneLengthAxis Y
ScaleFactor 1.00
[SegmentNames&Hierarchy]
#CHILD	PARENT
MASTER GLOBAL
root MASTER
chest root
L_mid_tent01 root
R_mid_tent01 root
spine01 root
Bip01_Neck chest
L_humerus chest
R_humerus chest
weapon_bone chest
Bip01_Head Bip01_Neck
eye_left_bone Bip01_Head
eye_right_bone Bip01_Head
L_forearm L_humerus
L_front_hand L_forearm
L_weapon_bone L_forearm
L_front_hand01_01 L_front_hand
L_front_hand02_01 L_front_hand
L_front_hand03_01 L_front_hand
L_front_hand01_02 L_front_hand01_01
L_front_hand02_02 L_front_hand02_01
L_front_hand03_02 L_front_hand03_01
R_forearm R_humerus
R_front_hand R_forearm
R_weapon_bone R_forearm
R_front_hand01_01 R_front_hand
R_front_hand02_01 R_front_hand
R_front_hand03_01 R_front_hand
R_front_hand01_02 R_front_hand01_01
R_front_hand02_02 R_front_hand02_01
R_front_hand03_02 R_front_hand03_01
null_rope01_connect L_mid_tent01
Rope1_Seg01 null_rope01_connect
Rope1_Seg02 Rope1_Seg01
Rope1_Seg03 Rope1_Seg02
Rope1_Seg04 Rope1_Seg03
Rope1_Seg05 Rope1_Seg04
Rope1_Seg06 Rope1_Seg05
Rope1_Seg07 Rope1_Seg06
Rope1_Seg09 Rope1_Seg07
L_mid_hand01 Rope1_Seg09
L_mid_hand02 Rope1_Seg09
L_mid_hand03 Rope1_Seg09
null_rope02_connect R_mid_tent01
Rope2_Seg01 null_rope02_connect
Rope2_Seg02 Rope2_Seg01
Rope2_Seg03 Rope2_Seg02
Rope2_Seg04 Rope2_Seg03
Rope2_Seg05 Rope2_Seg04
Rope2_Seg06 Rope2_Seg05
Rope2_Seg07 Rope2_Seg06
Rope2_Seg09 Rope2_Seg07
R_mid_hand01 Rope2_Seg09
R_mid_hand02 Rope2_Seg09
R_mid_hand03 Rope2_Seg09
spine02 spine01
spine03 spine02
pelvis spine03
null_rope03_connect pelvis
null_rope04_connect pelvis
Rope3_Seg01 null_rope03_connect
Rope3_Seg02 Rope3_Seg01
Rope3_Seg03 Rope3_Seg02
Rope3_Seg04 Rope3_Seg03
Rope3_Seg05 Rope3_Seg04
Rope3_Seg06 Rope3_Seg05
Rope3_Seg07 Rope3_Seg06
Rope3_Seg08 Rope3_Seg07
Rope3_Seg09 Rope3_Seg08
R_rear_hand01 Rope3_Seg09
R_rear_hand02 Rope3_Seg09
R_rear_hand03 Rope3_Seg09
Rope4_Seg01 null_rope04_connect
Rope4_Seg02 Rope4_Seg01
Rope4_Seg03 Rope4_Seg02
Rope4_Seg04 Rope4_Seg03
Rope4_Seg05 Rope4_Seg04
Rope4_Seg06 Rope4_Seg05
Rope4_Seg07 Rope4_Seg06
Rope4_Seg08 Rope4_Seg07
Rope4_Seg09 Rope4_Seg08
L_rear_hand01 Rope4_Seg09
L_rear_hand02 Rope4_Seg09
L_rear_hand03 Rope4_Seg09
[BasePosition]
#SegmentName Tx, Ty, Tz, Rx, Ry, Rz, BoneLength
MASTER 0.000000 0.000000 0.000000 -90.000000 0.000000 0.000000 10.000000 
root 0.000000 0.000000 0.000000 0.000000 0.000000 0.000000 10.000000 
chest 0.000000 0.000000 0.000000 0.000000 0.000000 0.000000 10.000000 
L_mid_tent01 0.000000 0.000000 0.000000 0.000000 0.000000 0.000000 10.000000 
R_mid_tent01 0.000000 0.000000 0.000000 0.000000 0.000000 0.000000 10.000000 
spine01 0.000000 0.000000 0.000000 0.000000 0.000000 0.000000 10.000000 
Bip01_Neck 0.000000 0.000000 0.000000 0.000000 0.000000 0.000000 10.000000 
L_humerus 0.000000 0.000000 0.000000 0.000000 0.000000 0.000000 10.000000 
R_humerus 0.000000 0.000000 0.000000 0.000000 0.000000 0.000000 10.000000 
weapon_bone 0.000000 0.000000 0.000000 0.000000 0.000000 0.000000 10.000000 
Bip01_Head 0.000000 0.000000 0.000000 0.000000 0.000000 0.000000 10.000000 
eye_left_bone 0.000000 0.000000 0.000000 0.000000 0.000000 0.000000 10.000000 
eye_right_bone 0.000000 0.000000 0.000000 0.000000 0.000000 0.000000 10.000000 
L_forearm 0.000000 0.000000 0.000000 0.000000 0.000000 0.000000 10.000000 
L_front_hand 0.000000 0.000000 0.000000 0.000000 0.000000 0.000000 10.000000 
L_weapon_bone 0.000000 0.000000 0.000000 0.000000 0.000000 0.000000 10.000000 
L_front_hand01_01 0.000000 0.000000 0.000000 0.000000 0.000000 0.000000 10.000000 
L_front_hand02_01 0.000000 0.000000 0.000000 0.000000 0.000000 0.000000 10.000000 
L_front_hand03_01 0.000000 0.000000 0.000000 0.000000 0.000000 0.000000 10.000000 
L_front_hand01_02 0.000000 0.000000 0.000000 0.000000 0.000000 0.000000 10.000000 
L_front_hand02_02 0.000000 0.000000 0.000000 0.000000 0.000000 0.000000 10.000000 
L_front_hand03_02 0.000000 0.000000 0.000000 0.000000 0.000000 0.000000 10.000000 
R_forearm 0.000000 0.000000 0.000000 0.000000 0.000000 0.000000 10.000000 
R_front_hand 0.000000 0.000000 0.000000 0.000000 0.000000 0.000000 10.000000 
R_weapon_bone 0.000000 0.000000 0.000000 0.000000 0.000000 0.000000 10.000000 
R_front_hand01_01 0.000000 0.000000 0.000000 0.000000 0.000000 0.000000 10.000000 
R_front_hand02_01 0.000000 0.000000 0.000000 0.000000 0.000000 0.000000 10.000000 
R_front_hand03_01 0.000000 0.000000 0.000000 0.000000 0.000000 0.000000 10.000000 
R_front_hand01_02 0.000000 0.000000 0.000000 0.000000 0.000000 0.000000 10.000000 
R_front_hand02_02 0.000000 0.000000 0.000000 0.000000 0.000000 0.000000 10.000000 
R_front_hand03_02 0.000000 0.000000 0.000000 0.000000 0.000000 0.000000 10.000000 
null_rope01_connect 0.000000 0.000000 0.000000 0.000000 0.000000 0.000000 10.000000 
Rope1_Seg01 0.000000 0.000000 0.000000 0.000000 0.000000 0.000000 10.000000 
Rope1_Seg02 0.000000 0.000000 0.000000 0.000000 0.000000 0.000000 10.000000 
Rope1_Seg03 0.000000 0.000000 0.000000 0.000000 0.000000 0.000000 10.000000 
Rope1_Seg04 0.000000 0.000000 0.000000 0.000000 0.000000 0.000000 10.000000 
Rope1_Seg05 0.000000 0.000000 0.000000 0.000000 0.000000 0.000000 10.000000 
Rope1_Seg06 0.000000 0.000000 0.000000 0.000000 0.000000 0.000000 10.000000 
Rope1_Seg07 0.000000 0.000000 0.000000 0.000000 0.000000 0.000000 10.000000 
Rope1_Seg09 0.000000 0.000000 0.000000 0.000000 0.000000 0.000000 10.000000 
L_mid_hand01 0.000000 0.000000 0.000000 0.000000 0.000000 0.000000 10.000000 
L_mid_hand02 0.000000 0.000000 0.000000 0.000000 0.000000 0.000000 10.000000 
L_mid_hand03 0.000000 0.000000 0.000000 0.000000 0.000000 0.000000 10.000000 
null_rope02_connect 0.000000 0.000000 0.000000 0.000000 0.000000 0.000000 10.000000 
Rope2_Seg01 0.000000 0.000000 0.000000 0.000000 0.000000 0.000000 10.000000 
Rope2_Seg02 0.000000 0.000000 0.000000 0.000000 0.000000 0.000000 10.000000 
Rope2_Seg03 0.000000 0.000000 0.000000 0.000000 0.000000 0.000000 10.000000 
Rope2_Seg04 0.000000 0.000000 0.000000 0.000000 0.000000 0.000000 10.000000 
Rope2_Seg05 0.000000 0.000000 0.000000 0.000000 0.000000 0.000000 10.000000 
Rope2_Seg06 0.000000 0.000000 0.000000 0.000000 0.000000 0.000000 10.000000 
Rope2_Seg07 0.000000 0.000000 0.000000 0.000000 0.000000 0.000000 10.000000 
Rope2_Seg09 0.000000 0.000000 0.000000 0.000000 0.000000 0.000000 10.000000 
R_mid_hand01 0.000000 0.000000 0.000000 0.000000 0.000000 0.000000 10.000000 
R_mid_hand02 0.000000 0.000000 0.000000 0.000000 0.000000 0.000000 10.000000 
R_mid_hand03 0.000000 0.000000 0.000000 0.000000 0.000000 0.000000 10.000000 
spine02 0.000000 0.000000 0.000000 0.000000 0.000000 0.000000 10.000000 
spine03 0.000000 0.000000 0.000000 0.000000 0.000000 0.000000 10.000000 
pelvis 0.000000 0.000000 0.000000 0.000000 0.000000 0.000000 10.000000 
null_rope03_connect 0.000000 0.000000 0.000000 0.000000 0.000000 0.000000 10.000000 
null_rope04_connect 0.000000 0.000000 0.000000 0.000000 0.000000 0.000000 10.000000 
Rope3_Seg01 0.000000 0.000000 0.000000 0.000000 0.000000 0.000000 10.000000 
Rope3_Seg02 0.000000 0.000000 0.000000 0.000000 0.000000 0.000000 10.000000 
Rope3_Seg03 0.000000 0.000000 0.000000 0.000000 0.000000 0.000000 10.000000 
Rope3_Seg04 0.000000 0.000000 0.000000 0.000000 0.000000 0.000000 10.000000 
Rope3_Seg05 0.000000 0.000000 0.000000 0.000000 0.000000 0.000000 10.000000 
Rope3_Seg06 0.000000 0.000000 0.000000 0.000000 0.000000 0.000000 10.000000 
Rope3_Seg07 0.000000 0.000000 0.000000 0.000000 0.000000 0.000000 10.000000 
Rope3_Seg08 0.000000 0.000000 0.000000 0.000000 0.000000 0.000000 10.000000 
Rope3_Seg09 0.000000 0.000000 0.000000 0.000000 0.000000 0.000000 10.000000 
R_rear_hand01 0.000000 0.000000 0.000000 0.000000 0.000000 0.000000 10.000000 
R_rear_hand02 0.000000 0.000000 0.000000 0.000000 0.000000 0.000000 10.000000 
R_rear_hand03 0.000000 0.000000 0.000000 0.000000 0.000000 0.000000 10.000000 
Rope4_Seg01 0.000000 0.000000 0.000000 0.000000 0.000000 0.000000 10.000000 
Rope4_Seg02 0.000000 0.000000 0.000000 0.000000 0.000000 0.000000 10.000000 
Rope4_Seg03 0.000000 0.000000 0.000000 0.000000 0.000000 0.000000 10.000000 
Rope4_Seg04 0.000000 0.000000 0.000000 0.000000 0.000000 0.000000 10.000000 
Rope4_Seg05 0.000000 0.000000 0.000000 0.000000 0.000000 0.000000 10.000000 
Rope4_Seg06 0.000000 0.000000 0.000000 0.000000 0.000000 0.000000 10.000000 
Rope4_Seg07 0.000000 0.000000 0.000000 0.000000 0.000000 0.000000 10.000000 
Rope4_Seg08 0.000000 0.000000 0.000000 0.000000 0.000000 0.000000 10.000000 
Rope4_Seg09 0.000000 0.000000 0.000000 0.000000 0.000000 0.000000 10.000000 
L_rear_hand01 0.000000 0.000000 0.000000 0.000000 0.000000 0.000000 10.000000 
L_rear_hand02 0.000000 0.000000 0.000000 0.000000 0.000000 0.000000 10.000000 
L_rear_hand03 0.000000 0.000000 0.000000 0.000000 0.000000 0.000000 10.000000 
#Beginning of Data. Separated by tabs
#Fr	Tx	Ty	Tz	Rx	Ry	Rz	SF
[MASTER]
14 0.000000 0.000000 0.000000 0.001660 0.001660 0.001660 0.000000
15 0.000000 0.000000 0.000000 0.001660 0.001660 0.001660 0.000000
[root]
14 -16.502338 85.772308 1617.055786 -84.966431 0.363104 -106.782951 1619.412964
15 -16.502338 85.772308 1617.055786 -84.550568 0.515592 -106.860085 1619.412964
[chest]
14 -84.512650 -34.090519 0.000000 -2.091715 -0.015154 167.317917 91.129311
15 -84.512650 -34.090519 0.000000 -2.091716 -0.014912 167.331192 91.129311
[L_mid_tent01]
14 27.299093 22.179203 -249.918686 67.789757 14.468823 163.879272 252.381668
15 27.299095 22.179199 -249.918686 68.100426 12.744200 165.168121 252.381668
[R_mid_tent01]
14 23.228794 24.509907 226.238495 172.785599 -7.353825 36.674412 228.744751
15 23.228794 24.509907 226.238495 166.472275 -0.093812 34.945736 228.744751
[spine01]
14 -0.361383 -0.195265 0.000000 -0.000001 -0.000007 22.052340 0.410763
15 -0.361383 -0.195265 0.000000 -0.000001 -0.000007 22.052340 0.410763
[Bip01_Neck]
14 165.484543 71.581718 0.000119 175.896118 1.177290 24.871183 180.302734
15 165.484543 71.581718 0.000119 175.896118 1.177290 24.871183 180.302734
[L_humerus]
14 -13.983130 -135.272980 -120.471481 -102.343102 1.774161 4.738284 181.680161
15 -13.983130 -135.272980 -120.471481 -102.181427 -0.018239 5.423638 181.680161
[R_humerus]
14 -13.983309 -135.273102 125.287651 -131.690079 -28.200218 -146.254654 184.909012
15 -13.983309 -135.273102 125.287651 -134.528427 -31.405716 -141.357468 184.909012
[weapon_bone]
14 235.964890 -300.705902 0.000000 0.000000 -89.951546 -128.212341 382.234833
15 235.964890 -300.705902 0.000000 0.000000 -89.951546 -128.212341 382.234833
[Bip01_Head]
14 161.757568 190.544617 11.183513 1.271936 -1.832936 -33.259148 250.195602
15 161.041565 200.332962 11.902714 1.219525 -1.958163 -32.136333 257.311768
[eye_left_bone]
14 33.527222 159.075912 -74.204926 -111.630486 -86.555313 12.154231 178.705322
15 33.715820 159.119965 -74.078690 -112.621552 -86.679756 13.148369 178.727646
[eye_right_bone]
14 42.378643 160.142502 54.572250 68.289055 -86.553490 12.236044 174.412445
15 42.438965 160.231171 54.694786 67.380676 -86.683060 13.147111 174.546890
[L_forearm]
14 322.776093 0.000000 -0.000119 0.001616 0.001703 -3.005656 322.776093
15 322.776093 0.000000 -0.000119 0.001636 0.001683 -1.635419 322.776093
[L_front_hand]
14 241.149185 -0.042021 -3.300071 40.038586 -2.109704 -13.141611 241.171753
15 241.149185 -0.042021 -3.300071 -6.895230 -2.110190 -13.141897 241.171753
[L_weapon_bone]
14 156.183838 0.000000 0.000000 0.000014 0.000007 0.000001 156.183838
15 156.183838 0.000000 0.000000 0.000014 0.000007 0.000001 156.183838
[L_front_hand01_01]
14 86.095154 20.947098 -0.655860 -0.366594 -0.477154 75.385574 88.609184
15 86.095154 20.947098 -0.655860 -0.366594 -0.477154 75.385574 88.609184
[L_front_hand02_01]
14 86.935165 -11.437475 24.513514 154.399796 -59.883835 -61.369587 91.046425
15 86.935165 -11.437475 24.513514 154.399811 -59.883842 -61.369598 91.046425
[L_front_hand03_01]
14 86.637497 -14.123976 -20.424902 -153.913849 58.118122 -62.702866 90.126129
15 86.637497 -14.123976 -20.424902 -153.913849 58.118130 -62.702866 90.126129
[L_front_hand01_02]
14 71.020905 -0.000179 0.000030 0.000334 -0.002323 -106.379684 71.020905
15 71.020905 -0.000179 0.000030 0.000334 -0.002323 -106.379684 71.020905
[L_front_hand02_02]
14 71.020927 -0.000119 0.000060 0.000334 -0.002323 -106.379684 71.020927
15 71.020927 -0.000119 0.000060 0.000334 -0.002323 -106.379684 71.020927
[L_front_hand03_02]
14 71.020905 -0.000060 0.000060 0.000334 -0.002323 -106.379684 71.020905
15 71.020905 -0.000060 0.000060 0.000334 -0.002323 -106.379684 71.020905
[R_forearm]
14 322.776428 -0.000060 0.000030 0.202694 -0.063295 -72.991768 322.776428
15 322.776428 -0.000060 0.000030 0.202632 -0.063491 -72.881058 322.776428
[R_front_hand]
14 238.847015 -0.006795 2.210259 -2.635298 -10.645461 -26.312506 238.857239
15 238.847015 -0.006795 2.210259 -2.635298 -10.645461 -26.312506 238.857239
[R_weapon_bone]
14 155.664093 0.002503 -0.000030 0.003487 0.001180 -90.988930 155.664078
15 155.664093 0.002503 -0.000030 0.003487 0.001180 -90.988930 155.664078
[R_front_hand01_01]
14 87.624611 14.231146 22.918642 -154.633499 -59.950619 61.746044 91.683487
15 87.624611 14.231146 22.918642 -154.633484 -59.950607 61.746044 91.683487
[R_front_hand02_01]
14 89.356956 14.367283 -19.491137 154.602661 58.302849 63.744389 92.579636
15 89.356956 14.367283 -19.491137 154.602661 58.302856 63.744389 92.579636
[R_front_hand03_01]
14 87.286232 -22.307278 -0.143439 0.162155 -0.423168 -75.767921 90.091743
15 87.286232 -22.307278 -0.143439 0.162155 -0.423168 -75.767906 90.091743
[R_front_hand01_02]
14 71.020905 0.000060 0.000119 0.002323 -0.000334 106.381714 71.020905
15 71.020905 0.000060 0.000119 0.002323 -0.000334 106.381706 71.020905
[R_front_hand02_02]
14 71.020844 -0.000030 -0.000119 0.002323 -0.000334 106.381714 71.020836
15 71.020844 -0.000030 -0.000119 0.002323 -0.000334 106.381706 71.020836
[R_front_hand03_02]
14 71.020905 0.000000 0.000030 0.002323 -0.000334 106.381714 71.020905
15 71.020905 0.000000 0.000030 0.002323 -0.000334 106.381706 71.020905
[null_rope01_connect]
14 328.732483 0.000000 -0.000238 -162.230377 -22.306267 86.689598 328.732483
15 328.732483 0.000000 -0.000238 -162.720413 -22.735056 84.611351 328.732483
[Rope1_Seg01]
14 0.000000 0.000000 0.000000 81.520493 18.460175 87.751732 0.000000
15 0.000000 0.000000 0.000000 84.133377 20.362791 91.460938 0.000000
[Rope1_Seg02]
14 139.999863 -0.000179 0.000000 3.709244 -2.275032 8.388994 139.999863
15 139.999863 -0.000179 0.000000 2.928775 -2.958839 8.649533 139.999863
[Rope1_Seg03]
14 139.999924 0.000060 -0.000060 6.825294 -1.551604 9.518087 139.999924
15 139.999924 0.000060 -0.000060 5.549861 -2.440603 9.761190 139.999924
[Rope1_Seg04]
14 139.999924 -0.000060 -0.000119 15.662063 0.163557 12.283553 139.999924
15 139.999924 -0.000060 -0.000119 14.271024 -1.143294 13.096998 139.999924
[Rope1_Seg05]
14 139.999832 0.000119 -0.000060 -6.111629 -2.698486 -1.677436 139.999832
15 139.999832 0.000119 -0.000060 -4.842945 -2.239846 -1.260224 139.999832
[Rope1_Seg06]
14 139.999954 0.000119 -0.000060 -12.473262 -3.498405 -7.112266 139.999954
15 139.999954 0.000119 -0.000060 -11.713737 -2.777546 -7.651773 139.999954
[Rope1_Seg07]
14 139.999985 0.000060 0.000000 -3.601734 -0.875607 -2.400592 139.999985
15 139.999985 0.000060 0.000000 -3.392354 -0.655179 -2.626316 139.999985
[Rope1_Seg09]
14 121.602913 0.000119 -0.000089 -167.129929 -1.372388 0.827605 121.602913
15 121.602913 0.000119 -0.000089 -110.599319 -1.360285 0.840838 121.602913
[L_mid_hand01]
14 103.859421 1.038730 8.195221 104.741753 -12.981697 -3.912722 104.187431
15 103.859421 1.038730 8.195221 105.103729 -17.962868 -5.290955 104.187431
[L_mid_hand02]
14 105.572853 -4.139662 -10.864139 -137.134750 13.420637 -13.443505 106.211075
15 105.572853 -4.139662 -10.864139 -138.167282 16.893654 -17.390942 106.211075
[L_mid_hand03]
14 104.641464 17.579376 -3.913581 -18.336935 4.070742 15.990165 106.179977
15 104.641464 17.579376 -3.913581 -17.918573 5.675238 20.907755 106.179977
[null_rope02_connect]
14 328.732849 0.000179 -0.000119 118.685928 82.490730 -115.716354 328.732849
15 328.732849 0.000179 -0.000119 58.210915 79.454079 -175.897766 328.732849
[Rope2_Seg01]
14 0.000095 0.000153 0.000028 107.278862 20.340847 -91.656364 0.000182
15 0.000095 0.000153 0.000030 111.671112 24.295189 -90.082733 0.000182
[Rope2_Seg02]
14 139.999741 -0.000060 -0.000119 32.671211 18.383162 -27.459267 139.999756
15 139.999741 -0.000060 -0.000119 22.640070 14.005688 -20.943354 139.999756
[Rope2_Seg03]
14 140.000107 0.000030 0.000000 33.905037 -0.491991 -13.689972 140.000107
15 140.000107 0.000030 0.000000 27.293924 2.940022 -12.268535 140.000107
[Rope2_Seg04]
14 139.999802 0.000000 -0.000060 41.476639 -12.990977 -19.459009 139.999802
15 139.999802 0.000000 -0.000060 31.262114 -4.039203 -11.466200 139.999802
[Rope2_Seg05]
14 139.999985 -0.000060 0.000119 32.927513 -56.108849 -25.743876 139.999985
15 139.999985 -0.000060 0.000119 50.762524 -37.580650 -34.828564 139.999985
[Rope2_Seg06]
14 139.999893 -0.000030 -0.000119 -1.060783 -19.596920 1.008034 139.999893
15 139.999893 -0.000030 -0.000119 1.821112 -37.422073 1.505257 139.999893
[Rope2_Seg07]
14 139.999893 0.000060 -0.000060 -0.943302 -6.731647 0.230546 139.999893
15 139.999893 0.000060 -0.000060 -0.933520 -10.273933 0.736115 139.999893
[Rope2_Seg09]
14 121.338966 0.000089 -0.000060 33.793236 -1.359788 -0.847141 121.338966
15 121.338966 0.000089 -0.000060 33.793236 -1.359788 -0.847141 121.338966
[R_mid_hand01]
14 104.680779 11.144459 -10.335981 -16.982639 45.008171 69.376053 105.778534
15 104.680779 11.144459 -10.335981 -19.077671 44.321083 66.393425 105.778534
[R_mid_hand02]
14 104.070427 2.443552 8.231699 50.324406 -67.142441 37.928329 104.424065
15 104.070427 2.443552 8.231699 53.450706 -65.386635 34.512547 104.424065
[R_mid_hand03]
14 106.028137 -11.221827 -5.996406 -176.876617 15.509374 -75.754578 106.788818
15 106.028137 -11.221827 -5.996406 -176.263077 15.377099 -73.446426 106.788818
[spine02]
14 129.756927 0.001550 0.000119 0.985721 -3.939316 -21.894751 129.756927
15 129.756927 0.001550 0.000119 0.962890 -3.944296 -21.584183 129.756927
[spine03]
14 78.614067 0.081635 -4.899009 -1.968798 3.796708 -37.283646 78.766602
15 78.614067 0.081635 -4.899010 -1.846304 3.857472 -35.493980 78.766602
[pelvis]
14 169.435242 0.051022 0.000000 -0.062133 -0.179657 15.149995 169.435257
15 169.435242 0.051022 0.000000 -0.062094 -0.179671 15.125050 169.435257
[null_rope03_connect]
14 -1.257226 -2.466202 137.391083 -68.286385 -71.837906 -178.854584 137.418976
15 -1.257226 -2.466202 137.391083 -67.222038 -71.605682 177.916641 137.418976
[null_rope04_connect]
14 -1.259640 -2.480268 -137.844437 -68.286385 -71.837906 -178.854584 137.872513
15 -1.259640 -2.480268 -137.844437 -67.222038 -71.605682 177.916641 137.872513
[Rope3_Seg01]
14 0.000010 0.000024 -0.000097 -130.651413 30.937588 -73.247261 0.000101
15 0.000010 0.000023 -0.000093 -128.357239 27.772476 -68.719849 0.000097
[Rope3_Seg02]
14 139.999924 -0.000119 0.000060 -0.606416 -4.526350 3.981163 139.999924
15 139.999924 -0.000119 0.000060 -0.183381 -4.129775 4.854698 139.999924
[Rope3_Seg03]
14 139.999924 -0.000119 0.000119 -1.043045 -6.087613 5.284231 139.999924
15 139.999924 -0.000119 0.000119 -0.708331 -5.770388 6.795895 139.999924
[Rope3_Seg04]
14 139.999924 0.000119 0.000000 -1.910519 -8.374496 7.307906 139.999924
15 139.999924 0.000119 0.000000 -1.994391 -8.213997 9.891487 139.999924
[Rope3_Seg05]
14 139.999924 -0.000238 0.000060 -4.491571 -13.185622 13.482974 139.999924
15 139.999924 -0.000238 0.000060 -6.200620 -12.427733 18.601412 139.999924
[Rope3_Seg06]
14 139.999893 -0.000119 -0.000060 -2.174551 -9.597722 5.790817 139.999893
15 139.999893 -0.000119 -0.000060 -3.931081 -10.077075 8.118979 139.999893
[Rope3_Seg07]
14 139.999771 0.000060 -0.000119 0.739992 -2.676348 -5.523917 139.999771
15 139.999771 0.000060 -0.000119 0.708910 -4.977170 -6.681339 139.999771
[Rope3_Seg08]
14 139.999985 -0.000060 0.000000 0.675265 -1.903200 -6.250124 139.999985
15 139.999985 -0.000060 0.000000 0.914751 -4.146965 -8.482251 139.999985
[Rope3_Seg09]
14 90.185997 -0.000179 -0.000060 -135.028870 -1.359718 -0.844746 90.185997
15 90.185997 -0.000179 -0.000060 -160.363464 -1.361075 -0.846258 90.185997
[R_rear_hand01]
14 103.366196 -6.073594 -10.757982 -169.737946 22.551674 -54.126629 104.101845
15 103.366196 -6.073594 -10.757982 -173.722168 23.903248 -64.209427 104.101845
[R_rear_hand02]
14 100.509819 12.039542 -7.992327 -24.598188 30.936150 51.337296 101.543350
15 100.509819 12.039542 -7.992327 -19.009037 34.423069 61.661366 101.543350
[R_rear_hand03]
14 101.539970 5.215704 5.435467 80.282890 -54.075932 11.757588 101.819031
15 101.539970 5.215704 5.435467 77.282013 -63.257511 15.261523 101.819031
[Rope4_Seg01]
14 0.000010 0.000038 -0.000114 127.636597 -59.504478 -173.905136 0.000121
15 0.000010 0.000038 -0.000114 130.833435 -56.234837 -177.267548 0.000121
[Rope4_Seg02]
14 139.999985 0.000060 0.000119 3.909974 -5.333431 1.256158 139.999985
15 139.999985 0.000060 0.000119 4.344703 -4.285820 1.825148 139.999985
[Rope4_Seg03]
14 139.999924 0.000000 -0.000238 9.116877 -9.194514 2.871200 139.999924
15 139.999924 0.000000 -0.000238 8.690242 -6.833238 3.567009 139.999924
[Rope4_Seg04]
14 139.999985 0.000000 0.000119 31.082716 -18.390409 9.227393 139.999985
15 139.999985 0.000000 0.000119 21.832743 -12.027635 9.004410 139.999985
[Rope4_Seg05]
14 139.999802 -0.000060 -0.000119 53.385471 -24.981028 36.043213 139.999802
15 139.999802 -0.000060 -0.000119 45.506210 -21.102882 31.113073 139.999802
[Rope4_Seg06]
14 139.999924 0.000000 0.000060 7.620312 13.964296 17.103968 139.999924
15 139.999924 0.000000 0.000060 14.386356 11.660117 27.001518 139.999924
[Rope4_Seg07]
14 139.999802 0.000000 0.000000 -3.031218 12.766819 -2.811899 139.999802
15 139.999802 0.000000 0.000000 -1.116326 11.001295 0.773659 139.999802
[Rope4_Seg08]
14 139.999924 0.000000 0.000119 -2.289458 8.402941 -0.538538 139.999924
15 139.999924 0.000000 0.000119 -1.638009 6.232108 1.363910 139.999924
[Rope4_Seg09]
14 90.185791 0.000060 0.000060 64.143509 2.229873 0.850642 90.185791
15 90.185791 0.000060 0.000060 47.352814 2.227357 0.848937 90.185791
[L_rear_hand01]
14 101.696655 -8.392275 -7.654577 -13.195322 -36.769974 108.367897 102.329041
15 101.696655 -8.392275 -7.654577 -14.087914 -36.478233 109.867661 102.329041
[L_rear_hand02]
14 102.726799 -1.568258 5.773216 71.888374 71.403000 158.912048 102.900848
15 102.726799 -1.568258 5.773216 72.968384 70.215233 160.058731 102.900848
[L_rear_hand03]
14 104.552910 9.721220 -10.420293 -177.514771 -24.546808 -106.563797 105.519653
15 104.552910 9.721220 -10.420293 -176.947357 -24.490156 -107.928688 105.519653
